<svg width="390" height="505" viewBox="0 0 390 505" fill="none" xmlns="http://www.w3.org/2000/svg">
<path fill-rule="evenodd" clip-rule="evenodd" d="M0 30C0 13.4314 13.4315 0 30 0H360C376.569 0 390 13.4315 390 30V340.007C379.779 340.271 371.582 348.002 371.582 357.5C371.582 366.998 379.779 374.729 390 374.993V475C390 491.569 376.569 505 360 505H30C13.4315 505 0 491.569 0 475V374.823C9.18683 373.609 16.2487 366.316 16.2487 357.5C16.2487 348.684 9.18683 341.391 0 340.177V30Z" fill="white"/>
<path d="M17 358L372 358" stroke="#868D96" stroke-dasharray="4 4"/>
</svg>
