<svg width="27" height="19" viewBox="0 0 27 19" fill="none" xmlns="http://www.w3.org/2000/svg">
<g clip-path="url(#clip0_2_7557)">
<rect width="26.0786" height="17.8082" transform="translate(0 0.899902)" fill="white"/>
<path d="M6.18443 11.5114C6.34345 11.5675 6.51118 11.5949 6.67979 11.5923L11.8738 11.4291L12.5475 10.6257C12.5759 10.5917 12.6112 10.5641 12.651 10.5445C12.6907 10.525 12.7342 10.514 12.7784 10.5123L18.459 10.2856C18.525 10.2829 18.5903 10.3008 18.6456 10.3369C18.701 10.3729 18.7437 10.4253 18.7679 10.4868C18.7921 10.5483 18.7966 10.6158 18.7806 10.6799C18.7647 10.744 18.7292 10.8016 18.6791 10.8446L18.3639 11.1154L24.7761 10.8536C24.9723 10.8456 25.1614 10.7781 25.3184 10.6602C25.4753 10.5422 25.5927 10.3793 25.655 10.193C25.7172 10.0068 25.7214 9.80601 25.6669 9.61736C25.6124 9.42871 25.5018 9.26109 25.3498 9.13673C24.6649 8.5778 23.8725 8.16552 23.0217 7.92543C22.1709 7.68534 21.2798 7.62257 20.4037 7.74101L7.17466 9.35398C7.11846 9.36082 7.06145 9.35253 7.00952 9.32996C6.95759 9.3074 6.91263 9.27137 6.87929 9.22562L4.85371 6.44643C4.55781 6.03958 4.16595 5.71216 3.71298 5.4933C3.26 5.27444 2.75996 5.17092 2.25733 5.19195L1.44179 5.22525L4.49477 10.1751C4.87957 10.8087 5.47922 11.283 6.18443 11.5114Z" fill="#313EF7"/>
<path d="M9.96672 17.1261L17.2257 10.89L12.5985 11.0745L8.07824 16.4662L9.96672 17.1261Z" fill="#313EF7"/>
<path d="M16.9779 7.86016L12.6584 4.30785L11.4292 4.57023L14.2524 8.19248L16.9779 7.86016Z" fill="#313EF7"/>
</g>
<defs>
<clipPath id="clip0_2_7557">
<rect width="26.0786" height="17.8082" fill="white" transform="translate(0 0.899902)"/>
</clipPath>
</defs>
</svg>
