<svg width="15" height="14" viewBox="0 0 15 14" fill="none" xmlns="http://www.w3.org/2000/svg">
<path d="M13.7227 5.16485L9.75547 4.58829L7.98204 0.992975C7.9336 0.894537 7.85391 0.81485 7.75547 0.766412C7.5086 0.644537 7.2086 0.7461 7.08516 0.992975L5.31172 4.58829L1.34454 5.16485C1.23516 5.18047 1.13516 5.23204 1.0586 5.31016C0.966039 5.4053 0.915034 5.53329 0.916792 5.66601C0.91855 5.79873 0.972927 5.92532 1.06797 6.01797L3.93829 8.81641L3.26016 12.768C3.24426 12.8599 3.25443 12.9544 3.28952 13.0409C3.32462 13.1273 3.38323 13.2022 3.45871 13.257C3.53419 13.3118 3.62352 13.3444 3.71657 13.351C3.80962 13.3577 3.90267 13.3381 3.98516 13.2945L7.5336 11.4289L11.082 13.2945C11.1789 13.3461 11.2914 13.3633 11.3992 13.3445C11.6711 13.2977 11.8539 13.0399 11.807 12.768L11.1289 8.81641L13.9992 6.01797C14.0773 5.94141 14.1289 5.84141 14.1445 5.73204C14.1867 5.4586 13.9961 5.20547 13.7227 5.16485Z" fill="#FF9900"/>
</svg>
