<svg width="27" height="18" viewBox="0 0 27 18" fill="none" xmlns="http://www.w3.org/2000/svg">
<path d="M6.18431 10.6115C6.34333 10.6676 6.51106 10.695 6.67967 10.6924L11.8736 10.5292L12.5473 9.72576C12.5758 9.6918 12.6111 9.66417 12.6508 9.64465C12.6906 9.62512 12.734 9.61412 12.7783 9.61236L18.4589 9.3857C18.5249 9.38299 18.5901 9.40092 18.6455 9.43697C18.7008 9.47303 18.7436 9.52544 18.7678 9.58691C18.792 9.64838 18.7964 9.71586 18.7805 9.77998C18.7646 9.84409 18.7291 9.90166 18.679 9.94468L18.3638 10.2155L24.776 9.95373C24.9722 9.94571 25.1613 9.87824 25.3183 9.76025C25.4752 9.64227 25.5926 9.47935 25.6548 9.29311C25.7171 9.10687 25.7212 8.90611 25.6667 8.71746C25.6122 8.52881 25.5017 8.36119 25.3497 8.23683C24.6648 7.6779 23.8724 7.26562 23.0215 7.02553C22.1707 6.78544 21.2797 6.72267 20.4036 6.8411L7.17454 8.45408C7.11834 8.46092 7.06133 8.45263 7.0094 8.43006C6.95747 8.4075 6.91251 8.37147 6.87917 8.32571L4.85359 5.54653C4.55769 5.13967 4.16583 4.81226 3.71285 4.5934C3.25988 4.37454 2.75984 4.27102 2.25721 4.29205L1.44167 4.32535L4.49465 9.27519C4.87945 9.90879 5.4791 10.3831 6.18431 10.6115V10.6115Z" fill="#313EF7"/>
<path d="M9.9666 16.2263L17.2255 9.99019L12.5983 10.1747L8.07812 15.5664L9.9666 16.2263Z" fill="#313EF7"/>
<path d="M16.9777 6.96032L12.6583 3.40801L11.4291 3.67039L14.2523 7.29264L16.9777 6.96032Z" fill="#313EF7"/>
</svg>
