<?xml version="1.0" standalone="no"?>
<!DOCTYPE svg PUBLIC "-//W3C//DTD SVG 20010904//EN"
 "http://www.w3.org/TR/2001/REC-SVG-20010904/DTD/svg10.dtd">
<svg version="1.0" xmlns="http://www.w3.org/2000/svg"
 width="700.000000pt" height="700.000000pt" viewBox="0 0 700.000000 700.000000"
 preserveAspectRatio="xMidYMid meet">
<metadata>
Created by potrace 1.14, written by Peter Selinger 2001-2017
</metadata>
<g transform="translate(0.000000,700.000000) scale(0.100000,-0.100000)"
fill="#000000" stroke="none">
<path d="M1448 6995 c-2 -1 -28 -6 -58 -9 -30 -4 -95 -16 -145 -28 -49 -12
-92 -22 -95 -23 -51 -10 -189 -66 -292 -120 -373 -192 -662 -540 -784 -940
-14 -44 -26 -89 -29 -100 -2 -11 -11 -56 -20 -100 -19 -91 -28 -370 -14 -456
5 -30 11 -72 14 -94 27 -182 133 -449 241 -603 24 -35 44 -65 44 -67 0 -3 8
-13 18 -24 9 -10 25 -29 34 -41 62 -83 215 -224 330 -303 145 -101 413 -219
548 -242 19 -3 42 -8 50 -10 89 -25 341 -39 458 -24 154 19 231 35 357 76 401
131 745 433 929 818 119 248 166 460 160 728 -5 246 -55 449 -165 672 -71 145
-85 168 -165 270 -115 147 -263 285 -396 367 -30 18 -63 39 -74 46 -102 66
-360 160 -519 187 -84 15 -415 31 -427 20z m276 -1131 c149 -37 276 -155 327
-303 62 -178 15 -375 -119 -503 -72 -68 -116 -94 -207 -119 -336 -92 -655 196
-601 543 15 93 88 225 158 284 65 55 168 101 248 111 25 3 46 6 48 8 6 5 91
-7 146 -21z"/>
<path d="M5160 6980 c-245 -41 -423 -109 -621 -236 -99 -63 -115 -75 -208
-159 -253 -225 -428 -533 -495 -870 -22 -109 -27 -156 -31 -298 -5 -180 -14
-275 -41 -432 -15 -92 -76 -299 -114 -390 -88 -212 -166 -351 -292 -520 -97
-131 -293 -329 -413 -418 -49 -37 -95 -71 -101 -76 -27 -22 -218 -131 -294
-168 -173 -83 -404 -156 -578 -183 -37 -6 -78 -13 -92 -15 -48 -8 -156 -15
-295 -20 -218 -8 -338 -29 -516 -91 -391 -136 -713 -420 -897 -789 -45 -91
-105 -244 -116 -298 -3 -12 -15 -67 -27 -122 -18 -81 -22 -134 -23 -280 0 -99
3 -202 7 -229 27 -181 75 -333 158 -501 185 -374 509 -658 909 -797 47 -17 96
-32 110 -34 14 -3 32 -7 40 -10 114 -41 467 -53 636 -21 458 87 826 328 1071
703 164 251 248 530 258 854 5 153 8 196 20 295 22 180 84 416 146 552 10 24
19 45 19 48 0 7 82 170 109 219 88 154 207 310 339 444 191 193 357 314 590
431 200 101 468 186 652 207 30 3 58 8 61 10 8 4 151 13 309 19 69 3 136 7
150 9 14 3 41 7 60 10 129 19 250 54 390 114 75 32 206 101 235 124 6 5 46 35
90 67 334 246 573 657 623 1076 9 78 9 313 0 390 -41 330 -187 644 -413 890
-237 257 -571 438 -905 491 -19 3 -46 8 -60 10 -70 15 -349 11 -450 -6z m355
-1111 c117 -26 256 -132 309 -237 175 -345 -77 -735 -457 -708 -171 12 -316
108 -392 261 -146 292 27 635 348 689 77 13 113 12 192 -5z m-3824 -3799 c162
-31 298 -148 361 -313 26 -66 33 -202 14 -274 -56 -213 -246 -363 -463 -365
-92 -1 -220 38 -281 85 -49 39 -123 122 -146 166 -152 292 12 635 339 704 39
9 123 7 176 -3z"/>
<path d="M5260 3189 c-558 -50 -1051 -391 -1295 -894 -106 -218 -156 -433
-159 -684 -2 -104 1 -140 20 -276 33 -241 175 -552 341 -750 266 -318 606
-507 1023 -570 93 -13 359 -14 440 0 723 122 1255 660 1355 1369 12 89 13 371
1 431 -4 17 -13 66 -22 110 -22 114 -77 272 -133 386 -140 278 -356 510 -621
665 -170 100 -387 176 -583 204 -95 14 -266 18 -367 9z m305 -1140 c371 -138
430 -638 101 -851 -296 -191 -684 -19 -738 327 -24 154 24 299 135 409 68 69
120 100 212 128 80 24 207 18 290 -13z"/>
</g>
</svg>
