<svg width="35" height="40" viewBox="0 0 35 40" fill="none" xmlns="http://www.w3.org/2000/svg">
<g clip-path="url(#clip0_2_7419)">
<path d="M29.3904 34.1517C29.3394 34.1517 29.2878 34.1463 29.2372 34.1362C29.1877 34.1258 29.1386 34.1112 29.091 34.0916C29.044 34.0721 28.9988 34.048 28.9567 34.0196C28.9137 33.9909 28.8737 33.9589 28.8377 33.922C28.802 33.8862 28.769 33.8463 28.741 33.8042C28.712 33.7611 28.6885 33.7157 28.6689 33.669C28.6494 33.622 28.6339 33.5728 28.6238 33.5228C28.6137 33.4721 28.6091 33.4212 28.6091 33.3696C28.6091 33.3189 28.6137 33.2673 28.6238 33.2173C28.6339 33.1673 28.6488 33.1181 28.6683 33.0711C28.6879 33.0235 28.712 32.9783 28.7401 32.9362C28.769 32.8932 28.802 32.8532 28.8377 32.8172C28.8737 32.7815 28.9137 32.7486 28.9567 32.7205C28.9988 32.6924 29.044 32.668 29.091 32.6485C29.1386 32.6289 29.1877 32.6143 29.2372 32.6042C29.3388 32.5838 29.4417 32.5838 29.5427 32.6042C29.5927 32.6143 29.6418 32.6289 29.6885 32.6485C29.7361 32.668 29.7816 32.6924 29.8237 32.7205C29.8668 32.7486 29.9064 32.7815 29.9424 32.8172C29.9785 32.8532 30.0114 32.8932 30.0395 32.9362C30.0676 32.9783 30.0917 33.0235 30.1112 33.0711C30.1307 33.1181 30.1457 33.1673 30.1558 33.2173C30.1658 33.2673 30.1713 33.3189 30.1713 33.3696C30.1713 33.4212 30.1658 33.4721 30.1558 33.5228C30.1457 33.5728 30.1307 33.622 30.1112 33.669C30.0917 33.7157 30.0676 33.7611 30.0395 33.8042C30.0114 33.8463 29.9785 33.8862 29.9424 33.922C29.9064 33.9589 29.8668 33.9909 29.8237 34.0196C29.7816 34.0477 29.7361 34.0721 29.6885 34.0916C29.6418 34.1112 29.5927 34.1261 29.5427 34.1362C29.4926 34.1463 29.441 34.1517 29.3904 34.1517Z" fill="#030522"/>
<path d="M18.4943 24.9952H16.3248C16.0908 24.9952 15.8689 24.8903 15.7206 24.709C15.5723 24.528 15.5128 24.2897 15.5588 24.0602L16.2891 20.4191H12.959L11.8744 21.3228C11.7341 21.4399 11.5571 21.5037 11.3746 21.5037H9.20477C8.94568 21.5037 8.70337 21.3752 8.5581 21.1607C8.41253 20.9459 8.38324 20.6733 8.47937 20.4326L9.4483 18.0107L8.47937 15.5888C8.38324 15.348 8.41253 15.0755 8.5581 14.8607C8.70337 14.6461 8.94568 14.5173 9.20477 14.5173H11.3746C11.5571 14.5173 11.7341 14.5814 11.8744 14.6986L12.959 15.6022H16.2891L15.5588 11.9612C15.5128 11.7314 15.5723 11.4933 15.7206 11.3124C15.8689 11.1311 16.0908 11.0261 16.3248 11.0261H18.4943C18.7653 11.0261 19.0171 11.1665 19.1593 11.3972L21.7539 15.6022H24.4608C25.7889 15.6022 26.8693 16.6826 26.8693 18.0107C26.8693 19.3388 25.7889 20.4191 24.4608 20.4191H21.7539L19.1593 24.6241C19.0171 24.8549 18.7653 24.9952 18.4943 24.9952ZM17.2785 23.4327H18.0585L20.6531 19.2277C20.7953 18.997 21.0471 18.8566 21.3181 18.8566H24.4608C24.9274 18.8566 25.3068 18.4773 25.3068 18.0107C25.3068 17.5441 24.9274 17.1647 24.4608 17.1647H21.3181C21.0471 17.1647 20.7957 17.0244 20.6531 16.7936L18.0585 12.5886H17.2785L18.0088 16.2297C18.0549 16.4595 17.9954 16.6975 17.847 16.8788C17.6987 17.0598 17.4769 17.1647 17.2428 17.1647H12.6764C12.4936 17.1647 12.3166 17.1006 12.1763 16.9838L11.0917 16.0798H10.3589L11.0151 17.7205C11.0895 17.9069 11.0895 18.1147 11.0151 18.3009L10.3589 19.9415H11.0917L12.1763 19.0379C12.3166 18.9207 12.4936 18.8566 12.6764 18.8566H17.2428C17.4769 18.8566 17.6987 18.9619 17.847 19.1429C17.9954 19.3239 18.0549 19.5622 18.0088 19.7917L17.2785 23.4327Z" fill="#030522"/>
<path d="M25.9443 33.7224H9.34546C8.91425 33.7224 8.56421 33.3726 8.56421 32.9411V28.1367C8.56421 27.7052 8.91425 27.3555 9.34546 27.3555H25.9443C26.3758 27.3555 26.7255 27.7052 26.7255 28.1367V32.9411C26.7255 33.3726 26.3758 33.7224 25.9443 33.7224ZM10.1267 32.1599H25.163V28.918H10.1267V32.1599Z" fill="#030522"/>
<path d="M33.2997 1.56342H30.1725V0.78125C30.1725 0.349731 29.8225 0 29.3913 0H4.21002C2.52179 0 1.14819 1.37329 1.14819 3.06152V36.9382C1.14819 38.6264 2.52148 40 4.20972 40H33.2997C33.7312 40 34.0809 39.6503 34.0809 39.2188V2.34467C34.0809 1.91315 33.7312 1.56342 33.2997 1.56342ZM28.6097 1.5625V10.9662L26.4082 9.92828C26.1973 9.8288 25.9532 9.8288 25.7423 9.92798L23.5347 10.9671V1.5625H28.6097ZM32.5184 38.4375H6.68134V6.74316C6.68134 6.31165 6.3316 5.96191 5.90009 5.96191C5.46857 5.96191 5.11884 6.31165 5.11884 6.74316V38.4375H4.21002C3.3833 38.4375 2.71069 37.7649 2.71069 36.9382V3.06152C2.71069 2.23511 3.3833 1.5625 4.21002 1.5625H21.9722V12.1985C21.9722 12.4658 22.1092 12.7145 22.335 12.858C22.462 12.9385 22.6075 12.9797 22.7537 12.9797C22.8669 12.9797 22.9805 12.955 23.0864 12.9053L26.0746 11.4984L28.6097 12.6938V29.5807C28.6097 30.0122 28.9598 30.3619 29.391 30.3619C29.8225 30.3619 30.1722 30.0122 30.1722 29.5807V3.12592H32.5184V38.4375Z" fill="#030522"/>
</g>
<defs>
<clipPath id="clip0_2_7419">
<rect width="34" height="40" fill="white" transform="translate(0.816284)"/>
</clipPath>
</defs>
</svg>
